# xmcd
#
# Track frame offsets:
#	150
#	3375
#	31447
#	62138
#	79832
#	102363
#	128074
#	183362
#	214650
#	241815
#	262650
#	281108
#	289994
#
# Disc length: 4137 seconds
#
# Revision: 0
# Processed by: cddbd v1.5.1PL2 Copyright (c) Steve Scherf et al.
# Submitted via: EasyCDDAExtractor 8.0.2.1
#
DISCID=b510270d
DTITLE=Saxon - Astoria London 02-10-04 Disc 1
DYEAR=2004
DGENRE=Hard Rock
TTITLE0=The Return
TTITLE1=Lionheart
TTITLE2=Power And The Glory
TTITLE3=Motorcycle Man
TTITLE4=Beyond The Gates
TTITLE5=Flying On The Edge
TTITLE6=Never Surrender - The Eagle Has Landed
TTITLE7=Searching For Atlantis
TTITLE8=747 (Strangers In The Night)
TTITLE9=And The Bands Played On
TTITLE10=Man And Machine
TTITLE11=To Live By The Sword
TTITLE12=Unleash The Beast
EXTD=
EXTT0=
EXTT1=
EXTT2=
EXTT3=
EXTT4=
EXTT5=
EXTT6=
EXTT7=
EXTT8=
EXTT9=
EXTT10=
EXTT11=
EXTT12=
PLAYORDER=
